<svg width="142" height="27" viewBox="0 0 142 27" fill="none" xmlns="http://www.w3.org/2000/svg">
<path d="M39.0656 21.3349H36.3148V2.59652H39.0656V21.3349Z" fill="black"/>
<path d="M42.1475 21.3349V10.1545H44.8711V21.3349H42.1475ZM43.5502 6.64107C43.069 6.64107 42.6605 6.47311 42.3246 6.1372C41.9977 5.80129 41.8343 5.40183 41.8343 4.93882C41.8343 4.46673 42.0023 4.06272 42.3382 3.72681C42.6741 3.38182 43.0781 3.20933 43.5502 3.20933C43.8589 3.20933 44.1448 3.2865 44.4081 3.44083C44.6714 3.59517 44.8848 3.80398 45.0482 4.06726C45.2116 4.32147 45.2933 4.61198 45.2933 4.93882C45.2933 5.40183 45.1208 5.80129 44.7758 6.1372C44.4308 6.47311 44.0223 6.64107 43.5502 6.64107Z" fill="black"/>
<path d="M46.9364 10.1545H49.1289V7.03599C49.1289 5.90116 49.3332 4.98875 49.7417 4.29877C50.1502 3.59971 50.6723 3.08677 51.3078 2.75993C51.9433 2.4331 52.6015 2.26968 53.2824 2.26968C54.1085 2.26968 54.7395 2.38317 55.1753 2.61013C55.6202 2.8371 55.888 2.99598 55.9788 3.08677L54.9029 5.14309C54.8485 5.07954 54.7077 4.97967 54.4808 4.84349C54.2629 4.69823 53.9588 4.6256 53.5684 4.6256C53.296 4.6256 53.0282 4.69369 52.7649 4.82987C52.5016 4.96605 52.2792 5.2248 52.0976 5.6061C51.9251 5.9874 51.8389 6.55482 51.8389 7.30835V10.1545H54.9438V12.4696H51.8389V21.3349H49.1289V12.4696H46.9364V10.1545Z" fill="black"/>
<path d="M58.4036 16.3643C58.4218 16.9817 58.5625 17.54 58.8258 18.0394C59.0981 18.5387 59.4976 18.9336 60.0242 19.2241C60.5598 19.5056 61.2089 19.6463 61.9715 19.6463C62.6343 19.6463 63.2017 19.5555 63.6738 19.3739C64.1459 19.1833 64.5363 18.9608 64.8449 18.7066C65.1536 18.4434 65.3806 18.1982 65.5258 17.9713L66.7787 19.619C66.4882 20.0185 66.1296 20.3726 65.7029 20.6813C65.2762 20.9899 64.7496 21.2305 64.1232 21.403C63.4968 21.5755 62.7251 21.6617 61.8081 21.6617C60.6007 21.6617 59.5475 21.4121 58.6487 20.9128C57.759 20.4044 57.0691 19.6962 56.5788 18.7883C56.0976 17.8805 55.857 16.8228 55.857 15.6153C55.857 14.5259 56.0795 13.5454 56.5243 12.6739C56.9783 11.7932 57.6365 11.0987 58.4989 10.5903C59.3614 10.0819 60.3964 9.82769 61.6039 9.82769C62.7296 9.82769 63.7056 10.0547 64.5317 10.5086C65.3579 10.9625 65.9979 11.6116 66.4519 12.456C66.9149 13.3003 67.1464 14.3171 67.1464 15.5064C67.1464 15.579 67.1418 15.7243 67.1328 15.9422C67.1328 16.151 67.1237 16.2917 67.1055 16.3643H58.4036ZM64.5726 14.3489C64.5635 14.0311 64.4636 13.677 64.273 13.2867C64.0823 12.8872 63.7737 12.5422 63.347 12.2517C62.9203 11.9612 62.3528 11.8159 61.6447 11.8159C60.9093 11.8159 60.3147 11.9566 59.8607 12.2381C59.4159 12.5195 59.0845 12.8554 58.8666 13.2458C58.6578 13.6362 58.5307 14.0039 58.4853 14.3489H64.5726Z" fill="black"/>
<path d="M74.7833 10.1545H76.9214V5.56525H79.6177V10.1545H82.423V12.4696H79.6177V17.4946C79.6177 18.112 79.7221 18.575 79.9309 18.8837C80.1488 19.1833 80.4484 19.3331 80.8297 19.3331C81.1566 19.3331 81.4153 19.2741 81.606 19.156C81.7966 19.0289 81.9101 18.9427 81.9464 18.8973L82.9814 20.8855C82.9178 20.94 82.759 21.0308 82.5048 21.1579C82.2505 21.285 81.9237 21.3985 81.5243 21.4983C81.1248 21.6073 80.6663 21.6617 80.1488 21.6617C79.2228 21.6617 78.4511 21.3848 77.8338 20.8311C77.2255 20.2773 76.9214 19.4102 76.9214 18.23V12.4696H74.7833V10.1545Z" fill="black"/>
<path d="M91.1628 9.82769C91.9073 9.82769 92.629 9.98203 93.3281 10.2907C94.0362 10.5994 94.6173 11.0896 95.0712 11.7614C95.5251 12.4333 95.7521 13.3094 95.7521 14.3897V21.3349H93.0013V14.9072C93.0013 13.8632 92.7652 13.1006 92.2931 12.6194C91.821 12.1291 91.1946 11.884 90.4138 11.884C89.9054 11.884 89.4107 12.0293 88.9295 12.3198C88.4574 12.6012 88.067 12.9916 87.7583 13.4909C87.4587 13.9903 87.3089 14.5577 87.3089 15.1932V21.3349H84.5581V2.59652H87.3089V12.0747C87.3906 11.766 87.6085 11.4392 87.9626 11.0942C88.3257 10.7401 88.7842 10.4405 89.338 10.1954C89.9009 9.95025 90.5092 9.82769 91.1628 9.82769Z" fill="black"/>
<path d="M103.253 18.8837L106.862 10.1545H109.586L102.014 27H99.2496L101.796 21.3349L97.1797 10.1545H99.9441L103.253 18.8837Z" fill="black"/>
<path d="M124.679 9.82769C125.514 9.82769 126.231 10.0093 126.83 10.3724C127.43 10.7265 127.893 11.2712 128.219 12.0066C128.546 12.7329 128.71 13.668 128.71 14.8119V21.3349H126.013V15.3294C126.013 14.2036 125.854 13.3502 125.537 12.7692C125.219 12.1881 124.633 11.8976 123.78 11.8976C123.326 11.8976 122.895 12.0247 122.486 12.2789C122.078 12.5241 121.746 12.9008 121.492 13.4092C121.238 13.9086 121.111 14.5486 121.111 15.3294V21.3349H118.564V15.3294C118.564 14.2036 118.374 13.3502 117.992 12.7692C117.611 12.1881 117.053 11.8976 116.317 11.8976C115.854 11.8976 115.418 12.0202 115.01 12.2653C114.61 12.5104 114.288 12.8872 114.043 13.3956C113.798 13.8949 113.675 14.5395 113.675 15.3294V21.3349H110.965V10.1545H113.675V11.8432C113.775 11.5617 113.998 11.2667 114.343 10.958C114.688 10.6402 115.123 10.3724 115.65 10.1545C116.177 9.93663 116.753 9.82769 117.379 9.82769C118.06 9.82769 118.623 9.95933 119.068 10.2226C119.522 10.4768 119.881 10.7946 120.144 11.1759C120.416 11.5572 120.611 11.9294 120.729 12.2925C120.857 11.9112 121.102 11.5299 121.465 11.1486C121.837 10.7673 122.296 10.4541 122.84 10.209C123.394 9.95479 124.007 9.82769 124.679 9.82769Z" fill="black"/>
<path d="M133.219 16.3643C133.237 16.9817 133.378 17.54 133.641 18.0394C133.913 18.5387 134.313 18.9336 134.839 19.2241C135.375 19.5056 136.024 19.6463 136.787 19.6463C137.449 19.6463 138.017 19.5555 138.489 19.3739C138.961 19.1833 139.351 18.9608 139.66 18.7066C139.969 18.4434 140.196 18.1982 140.341 17.9713L141.594 19.619C141.303 20.0185 140.945 20.3726 140.518 20.6813C140.091 20.9899 139.565 21.2305 138.938 21.403C138.312 21.5755 137.54 21.6617 136.623 21.6617C135.416 21.6617 134.363 21.4121 133.464 20.9128C132.574 20.4044 131.884 19.6962 131.394 18.7883C130.913 17.8805 130.672 16.8228 130.672 15.6153C130.672 14.5259 130.895 13.5454 131.339 12.6739C131.793 11.7932 132.452 11.0987 133.314 10.5903C134.176 10.0819 135.211 9.82769 136.419 9.82769C137.545 9.82769 138.521 10.0547 139.347 10.5086C140.173 10.9625 140.813 11.6116 141.267 12.456C141.73 13.3003 141.961 14.3171 141.961 15.5064C141.961 15.579 141.957 15.7243 141.948 15.9422C141.948 16.151 141.939 16.2917 141.921 16.3643H133.219ZM139.388 14.3489C139.379 14.0311 139.279 13.677 139.088 13.2867C138.897 12.8872 138.589 12.5422 138.162 12.2517C137.735 11.9612 137.168 11.8159 136.46 11.8159C135.724 11.8159 135.13 11.9566 134.676 12.2381C134.231 12.5195 133.9 12.8554 133.682 13.2458C133.473 13.6362 133.346 14.0039 133.3 14.3489H139.388Z" fill="black"/>
<path d="M10.0357 18.0366C7.27391 10.5895 13.9679 2.94636 25.6008 0.265462C27.2044 -0.104518 29.6854 -0.082726 29.4954 0.299361C27.9271 3.45049 27.0577 6.00015 26.2912 9.69462C24.5183 18.2366 20.6929 22.6967 15.1383 22.6967C12.4678 22.6967 13.9354 15.4463 17.6372 10.3479L19.3955 7.92656L17.1858 10.1058C14.5077 12.7474 12.6291 16.5165 12.5181 19.4715C12.417 22.1679 11.3359 21.5432 10.0357 18.0366Z" fill="#59A829"/>
<path d="M1.20209 10.6806C0.76993 8.10042 0.291684 5.39046 0.139325 4.65776C-0.0125652 3.92507 -0.0454819 3.32603 0.0664369 3.32603C1.30413 3.32603 6.10581 4.55413 7.64305 5.26406C10.9752 6.80258 10.9588 6.76626 9.50852 9.41617C7.90263 12.3518 7.70371 17.0773 9.07495 19.7151C10.244 21.9635 9.79819 22.103 6.68516 20.4637C3.25048 18.655 2.23381 16.84 1.20209 10.6806Z" fill="#59A829"/>
</svg>
